<?xml version="1.0" encoding="UTF-8"?>
<!-- Created with Inkscape (http://www.inkscape.org/) -->
<svg width="100" height="48" version="1.1" viewBox="0 0 26.46 12.7" xmlns="http://www.w3.org/2000/svg">
 <g transform="matrix(.3245 0 0 .3245 .5032 .5437)">
  <g transform="matrix(.08701 0 0 .08701 -49.76 -96.6)" clip-rule="evenodd" fill="#fc0" fill-rule="evenodd" stroke-linejoin="round" stroke-miterlimit="2">
   <path d="m642 1181h41v41h-41z"/>
  </g>
  <g transform="matrix(.08701 0 0 .08701 -28.36 -93.03)" clip-rule="evenodd" fill="#fc0" fill-rule="evenodd" stroke-linejoin="round" stroke-miterlimit="2">
   <path d="m642 1181h41v41h-41z"/>
  </g>
  <g fill="#0d1840">
   <path d="m9.663 16.86h7.135v3.567h-7.135z" stroke-width=".09439"/>
   <g stroke-width=".09439">
    <path d="m34.64 6.156v3.567h3.567v3.567h3.568v3.567h-3.568v-3.567h-3.567v7.135h10.7v-7.135h3.567v-3.567h-7.135v-3.567z"/>
    <path d="m48.9 6.156v3.567h7.135v7.135h3.567v-10.7z"/>
    <path d="m48.9 13.29v7.135h7.135v-3.567h-3.567v-3.567z"/>
    <path d="m63.17 6.156v7.135h3.567v-3.567h3.567v-3.567h-3.567z"/>
    <path d="m66.74 13.29v3.567h-3.567v3.567h7.135v-7.135z"/>
   </g>
   <path d="m4.312 2.589a1.784 1.784 0 0 1-1.784 1.784 1.784 1.784 0 0 1-1.784-1.784 1.784 1.784 0 0 1 1.784-1.784 1.784 1.784 0 0 1 1.784 1.784z" stroke-width=".09439"/>
   <g stroke-width=".2747">
    <path d="m10.22 34.45c1.969 0 3.507-1.087 3.876-2.605 0.04102-0.1436 0.06153-0.2666 0.06153-0.3692 0.02051-0.1436-0.06153-0.2051-0.1846-0.2256l-0.6358-0.1026c-0.1231-0.02052-0.2256 0.04102-0.2461 0.1846l-0.02051 0.1026c-0.2051 1.149-1.333 2.051-2.851 2.051-1.538 0-2.543-0.8819-2.83-2.195-0.08204-0.4102-0.1641-1.128-0.1641-2.174 0-0.9845 0.08204-1.764 0.1641-2.195 0.2666-1.272 1.313-2.174 2.83-2.174 1.538 0 2.625 0.9229 2.851 2.03l0.06153 0.2871c0.02051 0.1436 0.1026 0.2051 0.2256 0.1846l0.6563-0.08204c0.1231-0.02052 0.2051-0.08204 0.1846-0.2256-0.02051-0.1641-0.04102-0.3692-0.1026-0.5743-0.3897-1.415-1.887-2.584-3.876-2.584-1.969 0-3.405 1.128-3.835 2.769-0.1641 0.6358-0.2666 1.374-0.2666 2.543 0 1.067 0.08204 1.887 0.2666 2.564 0.4512 1.661 1.866 2.789 3.835 2.789z" style="white-space:pre"/>
    <path d="m20.35 34.45c1.928 0 3.384-1.108 3.856-2.789 0.1846-0.6768 0.2051-1.477 0.2051-2.564 0-1.025-0.02051-1.866-0.2051-2.543-0.4512-1.661-1.907-2.769-3.856-2.769-1.969 0-3.405 1.108-3.876 2.769-0.1846 0.6563-0.2256 1.456-0.2256 2.543 0 1.046 0.04102 1.887 0.2256 2.564 0.4922 1.682 1.907 2.789 3.876 2.789zm0-0.964c-1.518 0-2.584-0.8614-2.871-2.195-0.1026-0.4512-0.1436-1.19-0.1436-2.174 0-0.9435 0.04102-1.723 0.1436-2.174 0.3076-1.313 1.354-2.195 2.851-2.195s2.564 0.8819 2.871 2.195c0.1025 0.4512 0.1231 1.169 0.1231 2.174 0 0.9024-0.02051 1.702-0.1436 2.174-0.2871 1.313-1.374 2.195-2.83 2.195z" style="white-space:pre"/>
    <path d="m30.22 34.39c2.236 0 3.671-1.169 3.671-2.871 0-1.948-1.907-2.482-3.63-2.994-1.477-0.4307-2.666-0.8204-2.666-1.969 0-1.087 1.005-1.784 2.543-1.784 1.62 0 2.646 0.8204 2.646 1.825v0.06153c0 0.1231 0.08204 0.2051 0.2051 0.2051h0.6153c0.1231 0 0.2051-0.08204 0.2051-0.2051v-0.06153c0-1.559-1.436-2.728-3.651-2.728-2.154 0-3.63 1.067-3.63 2.748 0 1.866 1.784 2.42 3.528 2.953 1.415 0.4307 2.748 0.7794 2.748 2.01 0 1.087-1.025 1.928-2.605 1.928-1.6 0-2.666-0.8819-2.666-1.846v-0.2256c0-0.1231-0.08204-0.2051-0.2051-0.2051h-0.6358c-0.1231 0-0.2051 0.08204-0.2051 0.2051v0.2666c0 1.477 1.477 2.687 3.733 2.687z" style="white-space:pre"/>
    <path d="m46.79 23.81c-1.415 0-2.584 0.5743-3.159 1.784-0.04102 0.04102-0.08204 0.04102-0.1025-0.02052-0.5128-1.128-1.559-1.764-2.974-1.764-1.231 0-2.236 0.4307-2.83 1.313-0.04102 0.06153-0.1025 0.02052-0.1025-0.04102v-0.9229c0-0.1231-0.08204-0.2051-0.2051-0.2051h-0.6768c-0.1231 0-0.2051 0.08204-0.2051 0.2051v9.927c0 0.1231 0.08204 0.2051 0.2051 0.2051h0.6768c0.1231 0 0.2051-0.08204 0.2051-0.2051v-6.727c0-1.6 1.026-2.584 2.625-2.584 1.497 0 2.523 1.005 2.523 2.625v6.686c0 0.1231 0.08204 0.2051 0.2051 0.2051h0.6563c0.1231 0 0.2051-0.08204 0.2051-0.2051v-6.727c0-1.6 1.067-2.584 2.646-2.584 1.497 0 2.543 1.005 2.543 2.625v6.686c0 0.1231 0.08204 0.2051 0.2051 0.2051h0.6768c0.1231 0 0.2051-0.08204 0.2051-0.2051v-6.891c0-2.113-1.333-3.384-3.323-3.384z" style="white-space:pre"/>
    <path d="m56.94 34.45c1.928 0 3.384-1.108 3.856-2.789 0.1846-0.6768 0.2051-1.477 0.2051-2.564 0-1.025-0.02052-1.866-0.2051-2.543-0.4512-1.661-1.907-2.769-3.856-2.769-1.969 0-3.405 1.108-3.876 2.769-0.1846 0.6563-0.2256 1.456-0.2256 2.543 0 1.046 0.04102 1.887 0.2256 2.564 0.4922 1.682 1.907 2.789 3.876 2.789zm0-0.964c-1.518 0-2.584-0.8614-2.871-2.195-0.1025-0.4512-0.1436-1.19-0.1436-2.174 0-0.9435 0.04102-1.723 0.1436-2.174 0.3076-1.313 1.354-2.195 2.851-2.195 1.497 0 2.564 0.8819 2.871 2.195 0.1026 0.4512 0.1231 1.169 0.1231 2.174 0 0.9024-0.02052 1.702-0.1436 2.174-0.2871 1.313-1.374 2.195-2.83 2.195z" style="white-space:pre"/>
    <path d="m66.81 34.39c2.236 0 3.671-1.169 3.671-2.871 0-1.948-1.907-2.482-3.63-2.994-1.477-0.4307-2.666-0.8204-2.666-1.969 0-1.087 1.005-1.784 2.543-1.784 1.62 0 2.646 0.8204 2.646 1.825v0.06153c0 0.1231 0.08204 0.2051 0.2051 0.2051h0.6153c0.1231 0 0.2051-0.08204 0.2051-0.2051v-0.06153c0-1.559-1.436-2.728-3.651-2.728-2.154 0-3.63 1.067-3.63 2.748 0 1.866 1.784 2.42 3.528 2.953 1.415 0.4307 2.748 0.7794 2.748 2.01 0 1.087-1.026 1.928-2.605 1.928-1.6 0-2.666-0.8819-2.666-1.846v-0.2256c0-0.1231-0.08204-0.2051-0.2051-0.2051h-0.6358c-0.1231 0-0.2051 0.08204-0.2051 0.2051v0.2666c0 1.477 1.477 2.687 3.733 2.687z" style="white-space:pre"/>
   </g>
   <g stroke-width=".09439">
    <path d="m6.096 9.723h3.567v7.135h-3.567z"/>
    <path d="m9.663 6.156h7.135v3.567h-7.135z"/>
    <path d="m20.37 2.589v17.84h3.568v-10.7h7.135v-3.567h-7.135v-3.567z"/>
    <path d="m27.5 13.29h3.567v7.135h-3.567z"/>
   </g>
  </g>
 </g>
</svg>
